<?xml version="1.0" encoding="utf-8"?>
<!-- Generator: Adobe Illustrator 21.0.2, SVG Export Plug-In . SVG Version: 6.00 Build 0)  -->
<svg version="1.1" id="图层_1" xmlns="http://www.w3.org/2000/svg" xmlns:xlink="http://www.w3.org/1999/xlink" x="0px" y="0px"
	 viewBox="0 0 292 264" style="enable-background:new 0 0 292 264;" xml:space="preserve">
<style type="text/css">
	.st0{fill:#353535;fill-opacity:0.65;}
	.st1{fill:#FFFFFF;}
	.st2{fill:#FFFFFF;}
	.st3{fill:#FFFFFF;}
</style>
<path class="st0" d="M281.9,264H9.9c-5.5,0-10-4.5-10-10V10c0-5.5,4.5-10,10-10h272c5.5,0,10,4.5,10,10v244
	C291.9,259.5,287.4,264,281.9,264z"/>
<g>
	<path class="st1" d="M85.7,172.5c0.4,0.4,0.7,1,0.7,1.6s-0.3,1.2-0.7,1.7c-0.4,0.4-1,0.6-1.7,0.6c-0.7,0-1.2-0.2-1.7-0.6
		c-0.4-0.4-0.7-1-0.7-1.7c0-0.7,0.2-1.2,0.7-1.6c0.4-0.4,1-0.6,1.7-0.6S85.3,172,85.7,172.5z M85.7,178.5V195h-3.4v-16.5H85.7z"/>
	<path class="st1" d="M101.1,172.2l8.8,22.8h-3.7l-2.1-5.9h-9.8l-2.1,5.9h-3.7l8.8-22.8H101.1z M103,186.2l-3.8-10.3h-0.1l-3.8,10.3
		H103z"/>
	<path class="st1" d="M120.5,172.2c3.7,0,6.5,1,8.4,3.1c1.8,1.9,2.7,4.7,2.7,8.3c0,3.6-0.9,6.4-2.8,8.4c-1.9,2-4.7,3.1-8.4,3.1h-8.3
		v-22.8H120.5z M115.7,192h4.1c2.9,0,5-0.7,6.4-2.1c1.3-1.4,2-3.5,2-6.4c0-2.9-0.7-5.1-2-6.4c-1.3-1.4-3.5-2-6.3-2h-4.2V192z"/>
	<path class="st1" d="M145.6,172.2c2.2,0,4,0.5,5.2,1.6c1.2,1,1.8,2.4,1.8,4.2c0,1.3-0.3,2.4-1,3.3c-0.6,0.8-1.5,1.5-2.7,1.9
		c1.5,0.3,2.7,0.9,3.4,1.8s1.2,2.2,1.2,3.7c0,2.3-0.8,4-2.4,5.1c-1.3,0.9-3.2,1.3-5.7,1.3h-10.4v-22.8H145.6z M138.6,181.8h6
		c1.6,0,2.8-0.3,3.5-0.8c0.7-0.6,1.1-1.5,1.1-2.7c0-1.2-0.4-2-1.1-2.5c-0.7-0.5-1.9-0.8-3.4-0.8h-6.1V181.8z M138.6,192.1h6.5
		c1.5,0,2.6-0.3,3.5-0.7c1-0.6,1.6-1.6,1.6-2.9c0-1.3-0.4-2.3-1.2-2.9c-0.8-0.6-2-0.9-3.7-0.9h-6.6V192.1z"/>
	<path class="st1" d="M166.6,178.4v3.4c-0.8-0.3-1.6-0.4-2.4-0.4c-1,0-2,0.4-2.8,1.2c-0.9,0.9-1.3,2.1-1.3,3.5v8.8h-3.4v-16.5h3.4
		v2.5c0.4-0.9,1-1.6,1.6-2c0.8-0.6,1.7-0.9,2.7-0.9C165.3,178,166,178.1,166.6,178.4z"/>
	<path class="st1" d="M181.5,179.8c1,1.1,1.5,2.6,1.5,4.6V195h-3.1v-2.3c-0.6,0.8-1.4,1.5-2.4,2c-1.1,0.5-2.4,0.8-3.8,0.8
		c-1.7,0-3.1-0.4-4-1.3c-1.1-0.9-1.6-2-1.6-3.4c0-1.9,0.7-3.3,2.2-4.3c1.3-1,3.3-1.4,5.7-1.5l3.7-0.1v-0.7c0-2.3-1.2-3.5-3.7-3.5
		c-1.1,0-1.9,0.2-2.6,0.6c-0.8,0.4-1.2,1.1-1.4,2l-3.4-0.3c0.4-1.8,1.2-3.1,2.7-4c1.2-0.8,2.9-1.1,4.9-1.1
		C178.6,178,180.4,178.6,181.5,179.8z M176.2,187.4c-3.1,0.1-4.6,1.2-4.6,3.2c0,0.6,0.3,1.2,0.8,1.6c0.5,0.4,1.2,0.6,2.1,0.6
		c1.4,0,2.7-0.4,3.7-1.3c1-0.9,1.6-2,1.6-3.2v-1L176.2,187.4z"/>
	<path class="st1" d="M191,172.5c0.4,0.4,0.7,1,0.7,1.6s-0.3,1.2-0.7,1.7c-0.4,0.4-1,0.6-1.7,0.6c-0.7,0-1.2-0.2-1.7-0.6
		c-0.4-0.4-0.7-1-0.7-1.7c0-0.7,0.2-1.2,0.7-1.6c0.4-0.4,1-0.6,1.7-0.6S190.6,172,191,172.5z M191,178.5V195h-3.4v-16.5H191z"/>
	<path class="st1" d="M210.1,184.8V195h-3.4v-9.9c0-2.8-1.3-4.2-3.9-4.2c-1,0-1.8,0.3-2.5,1c-0.8,0.8-1.2,1.8-1.4,3.2v10h-3.4v-16.5
		h3.4v2c0.6-0.8,1.4-1.4,2.2-1.9c0.8-0.4,1.8-0.6,2.8-0.6C208.1,178,210.1,180.2,210.1,184.8z"/>
</g>
<g>
	<g>
		<circle class="st2" cx="129.3" cy="224.5" r="5.5"/>
		
			<animate  accumulate="none" additive="replace" attributeName="opacity" begin="0s" calcMode="linear" dur="900ms" fill="remove" keyTimes="0;0.167;0.5;0.668;1" repeatCount="indefinite" restart="always" values="0.3;1;1;0.3;0.3">
			</animate>
	</g>
	<g>
		<circle class="st1" cx="158.4" cy="224.5" r="5.5"/>
		
			<animate  accumulate="none" additive="replace" attributeName="opacity" begin="0s" calcMode="linear" dur="900ms" fill="remove" keyTimes="0;0.334;0.5;0.835;1" repeatCount="indefinite" restart="always" values="0.3;0.3;1;1;0.3">
			</animate>
	</g>
	<g>
		<circle class="st3" cx="143.8" cy="224.5" r="5.5"/>
		
			<animate  accumulate="none" additive="replace" attributeName="opacity" begin="0s" calcMode="linear" dur="900ms" fill="remove" keyTimes="0;0.167;0.334;0.668;0.835;1" repeatCount="indefinite" restart="always" values="0.3;0.3;1;1;0.3;0.3">
			</animate>
	</g>
</g>
<g>
	<path class="st1" d="M145.5,104.6v20.2c2.6,1.2,6,0.8,8.6,0.2c-0.2-2.8,0-5.6,0-8.4c3.8,0,7.8,0,11.6,0c0.4-4.4,1-9,1.2-13.4
		c2.2-1.2,4.8-2.2,7-3.2c-2.2-6.2-4-12.6-6.4-18.6c-5.2-11.6-19.4-18-31.5-14.4c-12.2,2.8-21,15.2-19.8,27.5
		c0.4,6.6,3.4,13,8.2,17.6c2.6,2.6,5.4,5.4,8,8c0,3.4,0,6.8,0,10.2c-1.6,0-3.4,0-5,0c0-2.6,0.4-5.2-0.2-7.8c-4-4.6-9-8.2-12-13.6
		c-6.6-11.2-5.6-26.1,2.6-36.3c8.4-11.2,24.6-15.4,37.3-10c8.6,3.4,15.6,10.8,18.6,19.6c2.2,6.8,4.6,13.6,6.6,20.4
		c-2.8,1.4-5.8,2.4-8.4,4c-0.6,5-1.2,10-1.4,15.2c-3.8,0-7.4,0-11.2,0c0,2.8,0,5.8,0,8.6c-6.2,0-12,0-18.2,0c0-7,0-18.8,0-25.7
		C141.1,104.6,145.5,104.6,145.5,104.6z"/>
	<path id="gear_1_" class="st1" d="M160.3,94.8v-4.2h-3.4c-0.2-1-0.4-2-0.8-2.8l3-1.6l-2.2-3.6l-3,1.6c-0.6-0.8-1.4-1.4-2-2l1.6-3
		l-3.6-2.2l-1.6,3c-1-0.4-1.8-0.6-2.8-0.8v-3.6h-4.2v3.4c-1,0.2-2,0.4-2.8,0.8l-1.6-3l-3.6,2.2l1.6,3c-0.8,0.6-1.4,1.4-2,2l-3-1.6
		l-2.2,3.6l3,1.6c-0.4,1-0.6,1.8-0.8,2.8h-3.6v4.2h3.4c0.2,1,0.4,2,0.8,2.8l-3,1.6l2.2,3.6l3-1.6c0.6,0.8,1.4,1.4,2,2l-1.6,3
		l3.6,2.2l1.6-3c1,0.4,1.8,0.6,2.8,0.8v3.4h4.2V106c1-0.2,2-0.4,2.8-0.8l1.6,3l3.6-2.2l-1.6-3c0.8-0.6,1.4-1.4,2-2l3,1.6l2.2-3.6
		l-3-1.6c0.4-1,0.6-1.8,0.8-2.8h3.6V94.8z M143.3,103.8c-6.2,0-11.2-5-11.2-11.2c0-6.2,5-11.2,11.2-11.2s11.2,5,11.2,11.2
		C154.5,98.8,149.5,103.8,143.3,103.8z M143.3,99c-3.6,0-6.4-2.8-6.4-6.4s2.8-6.4,6.4-6.4s6.4,2.8,6.4,6.4
		C149.9,96.2,146.9,99,143.3,99z	">
		<animateTransform  accumulate="none" additive="replace" attributeName="transform" begin="0s; second.end" calcMode="linear" dur="0.1s" fill="remove" from="0 143.5 92.5" id="first" restart="always" to="30 143.5 92.5" type="rotate">

		</animateTransform>
		
		<animateTransform  accumulate="none" additive="replace" attributeName="transform" begin="first.end" calcMode="linear" dur="300ms" fill="remove" from="0 143.5 92.5" id="second" restart="always" to="0 143.5 92.5" type="rotate">

		</animateTransform>

	</path>
</g>
</svg>
